<svg width="18" height="18" viewBox="0 0 39 45" fill="none" xmlns="http://www.w3.org/2000/svg">
<path d="M5.84331 9.6H9.114C9.62515 9.6 10.0503 9.21388 10.12 8.7075C10.4036 6.64523 10.9389 5.04944 12.859 3.38889C15.1207 1.35894 17.1282 1 19.5 1C21.8452 1 23.7785 1.86479 25.6046 3.33849C25.6459 3.37184 25.6848 3.40919 25.72 3.44894C27.3706 5.31138 28.3954 6.85869 28.8315 8.73695C28.945 9.22589 29.3625 9.6 29.8644 9.6H33.5701C33.6765 9.6 33.7833 9.61701 33.884 9.65142C36.2252 10.4516 37.1043 11.4276 37.9421 13.7381C37.9807 13.8446 38 13.9579 38 14.0711V39.5604C38 39.653 37.987 39.7463 37.961 39.8351C37.2363 42.3142 36.395 43.3032 33.8523 43.9688C33.7725 43.9897 33.689 44 33.6065 44H5.40607C5.31527 44 5.22373 43.9875 5.13645 43.9624C2.57887 43.2287 1.60996 42.332 1.02669 39.8174C1.00879 39.7402 1.00072 39.66 1.00215 39.5808L1.47275 13.5114C1.47382 13.4521 1.48016 13.3921 1.49245 13.334C1.97725 11.0424 3.36154 10.0985 5.64532 9.62018C5.71023 9.60659 5.77699 9.6 5.84331 9.6Z" stroke="#1D1D1F" stroke-width="2"/>
<path d="M30 9.6L9 9.6" stroke="#1D1D1F" stroke-width="2"/>
</svg>
