<svg width="14" height="16" viewBox="0 0 14 16" fill="none" xmlns="http://www.w3.org/2000/svg">
<path fill-rule="evenodd" clip-rule="evenodd" d="M5.37209 11.6347C8.33902 11.6347 10.7442 9.03017 10.7442 5.81734C10.7442 2.60451 8.33902 0 5.37209 0C2.40517 0 0 2.60451 0 5.81734C0 9.03017 2.40517 11.6347 5.37209 11.6347ZM5.37209 10.6081C7.79958 10.6081 9.76744 8.4632 9.76744 5.81734C9.76744 3.17148 7.79958 1.02659 5.37209 1.02659C2.94461 1.02659 0.976744 3.17148 0.976744 5.81734C0.976744 8.4632 2.94461 10.6081 5.37209 10.6081Z" fill="#1D1D1F"/>
<rect width="7.11676" height="1.16381" rx="0.581903" transform="matrix(-0.67621 -0.736709 -0.694341 0.719646 13.76 14.5287)" fill="#1D1D1F"/>
</svg>
