<svg width="14" height="15" viewBox="0 0 16 17" fill="none" xmlns="http://www.w3.org/2000/svg">
<path fill-rule="evenodd" clip-rule="evenodd" d="M6.13953 12.4103C9.53031 12.4103 12.2791 9.63218 12.2791 6.20516C12.2791 2.77815 9.53031 0 6.13953 0C2.74876 0 0 2.77815 0 6.20516C0 9.63218 2.74876 12.4103 6.13953 12.4103ZM6.13954 11.3153C8.9138 11.3153 11.1628 9.02741 11.1628 6.20516C11.1628 3.38291 8.9138 1.09503 6.13954 1.09503C3.36527 1.09503 1.11628 3.38291 1.11628 6.20516C1.11628 9.02741 3.36527 11.3153 6.13954 11.3153Z" fill="#D1D1D1"/>
<rect width="7.8438" height="1.28491" rx="0.642453" transform="matrix(-0.701179 -0.712985 -0.718743 0.695275 15.7258 15.4973)" fill="#D1D1D1"/>
</svg>
